<svg xmlns="http://www.w3.org/2000/svg" viewBox="0 0 419 35">
  <path d="M30.5 2.5h-7l-4.9 23.7L13.1 2.5H6L.5 32.5h5.5l3.5-22.5 5.5 22.5h4.5l5.5-22.5 3.5 22.5h5.5L30.5 2.5zM63.8 2.5h-6.5l-4.9 23.7-5.5-23.7h-7.1l-5.5 30h5.5l3.5-22.5 5.5 22.5h4.5l5.5-22.5 3.5 22.5h5.5l-5.5-30zM75.7 32.5h5.5V2.5h-5.5v30zM103.2 2.5h-5.5v12.5h-7.5V2.5h-5.5v30h5.5V20h7.5v12.5h5.5v-30zM123.9 17.5h-7.5V7.5h7.5v10zm5.5-15h-18.5v30h18.5v-5h-13v-7.5h7.5V15h-7.5V7.5h13v-5zM148.9 2.5h-5.5v25h-7.5v5h20.5v-5h-7.5v-25zM178.9 17.5h-7.5V7.5h7.5v10zm5.5-15h-18.5v30h18.5v-5h-13v-7.5h7.5V15h-7.5V7.5h13v-5zM203.9 2.5h-5.5v25h-7.5v5h20.5v-5h-7.5v-25zM233.9 17.5h-7.5V7.5h7.5v10zm5.5-15h-18.5v30h18.5v-5h-13v-7.5h7.5V15h-7.5V7.5h13v-5zM258.9 2.5h-5.5v25h-7.5v5h20.5v-5h-7.5v-25zM288.9 17.5h-7.5V7.5h7.5v10zm5.5-15h-18.5v30h18.5v-5h-13v-7.5h7.5V15h-7.5V7.5h13v-5zM313.9 2.5h-5.5v25h-7.5v5h20.5v-5h-7.5v-25zM343.9 17.5h-7.5V7.5h7.5v10zm5.5-15h-18.5v30h18.5v-5h-13v-7.5h7.5V15h-7.5V7.5h13v-5zM368.9 2.5h-5.5v25h-7.5v5h20.5v-5h-7.5v-25zM398.9 17.5h-7.5V7.5h7.5v10zm5.5-15h-18.5v30h18.5v-5h-13v-7.5h7.5V15h-7.5V7.5h13v-5z"/>
</svg>